<?xml version="1.0" standalone="no"?>
<!DOCTYPE svg PUBLIC "-//W3C//DTD SVG 20010904//EN"
 "http://www.w3.org/TR/2001/REC-SVG-20010904/DTD/svg10.dtd">
<svg version="1.0" xmlns="http://www.w3.org/2000/svg"
 width="100.000000pt" height="100.000000pt" viewBox="0 0 100.000000 100.000000"
 preserveAspectRatio="xMidYMid meet">

<g transform="translate(0.000000,100.000000) scale(0.100000,-0.100000)"
fill="#000000" stroke="none">
<path d="M230 851 c-69 -21 -130 -73 -166 -141 -30 -55 -25 -188 8 -260 51
-111 135 -194 335 -329 l93 -63 101 69 c215 145 302 238 340 365 56 183 -41
347 -215 365 -67 7 -125 -10 -181 -52 l-45 -35 -45 35 c-67 50 -152 68 -225
46z m166 -54 c33 -17 65 -46 88 -79 l16 -22 16 22 c48 69 100 96 185 97 89 0
151 -36 192 -115 26 -49 28 -62 24 -122 -6 -97 -43 -166 -136 -258 -42 -41
-123 -106 -179 -144 l-101 -69 -103 69 c-133 90 -246 200 -284 279 -24 50 -29
73 -29 136 0 67 4 81 30 124 43 70 118 109 196 102 31 -3 69 -12 85 -20z"/>
</g>
</svg>
